<svg xmlns="http://www.w3.org/2000/svg" stroke-linecap="round" stroke-linejoin="round" viewBox="-2 0 42 8">
  <g fill="none">
    <path stroke="#000" stroke-width="2.8" d="M2 3H0v3h2M1 4.5H0"/>
    <path stroke="#fff1e8" d="M2 3H0v3h2M1 4.5H0"/>
  </g>
  <g fill="none">
    <path stroke="#000" stroke-width="2.8" d="M4.8 3v3h2"/>
    <path stroke="#fff1e8" d="M4.8 3v3h2"/>
  </g>
  <g fill="none">
    <path stroke="#000" stroke-width="2.8" d="M11.6 3h-2v3h2m-1-1.5h-1"/>
    <path stroke="#fff1e8" d="M11.6 3h-2v3h2m-1-1.5h-1"/>
  </g>
  <g fill="none">
    <path stroke="#000" stroke-width="2.8" d="M14.4 6V3l1 1 1-1v3"/>
    <path stroke="#fff1e8" d="M14.4 6V3l1 1 1-1v3"/>
  </g>
  <g fill="none">
    <path stroke="#000" stroke-width="2.8" d="M21.2 3h-2v3h2m-1-1.5h-1"/>
    <path stroke="#fff1e8" d="M21.2 3h-2v3h2m-1-1.5h-1"/>
  </g>
  <g fill="none">
    <path stroke="#000" stroke-width="2.8" d="M24 6V3h1l1 1v2"/>
    <path stroke="#fff1e8" d="M24 6V3h1l1 1v2"/>
  </g>
  <g fill="none">
    <path stroke="#000" stroke-width="2.8" d="M28.8 3h2m-1 0v3"/>
    <path stroke="#fff1e8" d="M28.8 3h2m-1 0v3"/>
  </g>
  <g fill="none">
    <path stroke="#000" stroke-width="2.8" d="M35.6 3h-1l-1 1 2 1-1 1h-1"/>
    <path stroke="#fff1e8" d="M35.6 3h-1l-1 1 2 1-1 1h-1"/>
  </g>
</svg>